<svg xmlns="http://www.w3.org/2000/svg" id="svg1" width="501.413" height="184.322" viewBox="0 0 501.413 184.322">
   <defs id="defs1">
      <linearGradient id="lg" x1="7" x2="293" y1="181" y2="181" gradientTransform="translate(-7 -89)"
         gradientUnits="userSpaceOnUse">
         <stop id="stop5" offset="0" style="stop-color:#785eff" />
         <stop id="stop6" offset="1" style="stop-color:#abe6ff" />
      </linearGradient>
   </defs>
   <path
      d="M237.297.032c-24.393-.282-52.093 1.396-68.362 1.976-23.778.848-51.933 7.45-78.035 18.123-11.735 4.799-30.608 10.306-43.334 14.194-4.02 1.228 2.9 6.972-.424 9.314-23.586 16.629-40.678 37.02-40.023 58.846 1.357 45.246-13.96 63.793-3.356 81.639.212.356.752.217.926-.293 1.348-5.046 4.647-7.936 8.838-10.91 6.332-5.046 13.426-10.54 14.297-13.948 3.673 1.3 10.257.004 16.7-1.246 5.652-1.095 10.97-2.566 16.245.557 1.487.567 1.839-.02 1.522-.702-8.666-18.645-28.449-16.305-40.867-40.052-8.41-16.083 14.14-29.864 123.707-26.948q4.787.127 9.437.012c-5.51 5.422-11.808 11.748-19.172 17.324-27.188 20.59-56.4 23.006-51.383 31.66 4.42 7.622 38.6 1.88 64.706-12.947 18-10.224 30.306-27.832 31.945-38.591C246.42 76.6 285.279 30.664 286.195 12.795c-1.213.153-9.124 1.18-18.95 3.3-10.687 2.308-23.631 5.939-32.43 10.984-11.087 6.355-17.079 14.35-22.968 20.187-2.944 2.918-5.9 5.328-9.517 6.52-3.618 1.19-7.802 1.072-12.887-.754a1.5 1.5 0 0 1-.904-1.918 1.5 1.5 0 0 1 1.92-.905c4.645 1.669 8.001 1.692 10.931.727s5.53-3.01 8.344-5.8c5.628-5.576 11.964-13.997 23.588-20.661 9.353-5.362 22.462-8.976 33.291-11.312 9.913-2.14 17.922-3.183 19.205-3.344C282.776 2.555 261.69.314 237.297.032m-37.534 36.125a4.415 6.07 66.077 0 1 4.7 2.625 4.415 6.07 66.077 0 1-4.397 6.332 4.415 6.07 66.077 0 1-6.972-2.15 4.415 6.07 66.077 0 1 4.396-6.33 4.415 6.07 66.077 0 1 2.273-.477"
      style="fill:url(#lg)" />
   <g style="fill:#fff">
      <path
         d="M304.906 59.538q-2.826 0-5.066-.8-2.24-.746-3.52-2.24-1.227-1.493-1.227-3.52 0-2.506 2.453-5.013 2.507-2.453 7.467-4.267l1.387 1.494q-2.56 1.333-3.84 3.04-1.227 1.706-1.227 3.466 0 1.814 1.44 2.774 1.493 1.013 3.787 1.013 1.76 0 3.253-.587 1.547-.533 2.453-1.653.907-1.067.907-2.613 0-1.44-.8-2.134-.747-.693-2.453-1.013-1.707-.32-4.427-.587-2.187-.266-4.267-.8-2.026-.533-3.306-1.653-1.28-1.067-1.28-2.933 0-1.547.8-2.72.853-1.174 2.293-2.134 1.493-.96 3.413-1.813l1.494 1.6q-.854.32-1.867 1.067-.96.746-.96 1.866 0 .854.64 1.387.693.48 2.24.8 1.6.267 4.267.587 2.666.266 4.96.8 2.293.533 3.68 1.813 1.44 1.28 1.44 3.893 0 3.254-1.974 5.707t-5.173 3.787q-3.2 1.386-6.987 1.386m.64-21.76q-2.773 0-4.853-1.013-2.027-1.067-3.147-2.827-1.12-1.813-1.12-4.106 0-2.614 1.387-4.587t3.68-3.093q2.347-1.174 5.227-1.174 4.053 0 6.506 2.187 2.507 2.187 2.507 5.707 0 2.56-1.28 4.586-1.28 1.974-3.573 3.147t-5.334 1.173m.96-4.106q1.174 0 1.974-.48.853-.48 1.28-1.334.48-.853.48-2.026 0-2.08-1.227-3.414-1.227-1.333-3.307-1.333-1.706 0-2.72 1.067-1.013 1.013-1.013 2.88 0 1.386.587 2.453.586 1.013 1.6 1.6 1.066.587 2.346.587m3.894-8.107-.587-2.827 9.547-1.12v3.947zm22.08 19.253q-3.2 0-5.707-1.28-2.507-1.333-3.947-3.84-1.386-2.506-1.386-6.026 0-3.787 1.6-6.614 1.6-2.88 4.32-4.48t6.133-1.6q4.32 0 6.507 2.614t2.186 7.04q0 .586-.053 1.386 0 .747-.107 1.44H336.8v-2.933q0-2.507-.854-3.893-.853-1.387-3.04-1.387-1.76 0-3.04.96-1.28.907-1.973 2.613-.64 1.654-.64 3.894 0 3.466 1.813 5.44 1.814 1.92 4.747 1.92 1.653 0 3.2-.587 1.6-.64 3.04-1.867l1.973 3.2q-1.546 1.547-3.2 2.454-1.653.853-3.253 1.173-1.6.373-3.093.373m-8.054-11.36.694-3.68h16.213v3.68zm29.707 11.414q-1.653 0-3.253-.267-1.547-.267-2.88-.693-1.28-.427-2.187-.96l1.653-4.907q1.44 1.227 3.36 1.973 1.974.694 3.627.694 1.707 0 2.347-.747.693-.8.693-1.653 0-1.12-.8-1.76-.747-.64-2.027-1.067-1.226-.48-2.613-.907-1.333-.48-2.613-1.226-1.227-.747-2.027-1.92-.747-1.227-.747-3.2 0-2.454 1.174-4.054 1.226-1.6 3.2-2.4 2.026-.853 4.426-.853 1.76 0 3.574.427 1.866.373 3.2 1.173l-1.654 4.587q-1.066-1.174-2.773-1.707t-2.667-.533q-1.653 0-2.293.64t-.64 1.386q0 1.014.8 1.654.8.586 2.027 1.066 1.28.427 2.666.907 1.44.48 2.667 1.28 1.28.747 2.08 1.973.8 1.227.8 3.2 0 1.547-.587 2.987-.533 1.387-1.706 2.507-1.12 1.12-2.827 1.76t-4 .64m24.48-.054q-3.36 0-5.973-1.493t-4.107-4.053q-1.493-2.614-1.493-5.974 0-3.573 1.653-6.346 1.707-2.774 4.587-4.374t6.506-1.6q2.347 0 4.214.747 1.866.693 3.36 2.027l-2.56 4.746q-1.387-1.44-2.827-2.24-1.387-.8-2.987-.8-1.813 0-3.04 1.014-1.173.96-1.76 2.613-.533 1.6-.533 3.52 0 2.347.853 4.053.907 1.654 2.4 2.56 1.547.854 3.414.854 1.333 0 2.72-.587 1.386-.587 2.72-1.76l1.813 3.467q-1.44 1.386-3.04 2.186-1.547.8-3.04 1.12t-2.88.32m29.867-.693V31.698q0-2.72-1.174-4.266-1.173-1.6-3.36-1.6-1.173 0-2.453.426-1.227.427-2.347 1.227-1.066.8-1.706 1.973l-1.974-1.333q1.494-2.24 3.254-3.733 1.813-1.547 3.786-2.294 2.027-.8 4.214-.8 3.306 0 5.6 2.187 2.346 2.133 2.346 5.973v14.667zm-15.52 0V6.792l6.08-1.12v38.453Zm38.026.693q-3.2 0-5.706-1.28-2.507-1.333-3.947-3.84-1.387-2.506-1.387-6.026 0-3.787 1.6-6.614 1.6-2.88 4.32-4.48t6.134-1.6q4.32 0 6.506 2.614t2.187 7.04q0 .586-.053 1.386 0 .747-.107 1.44h-5.227v-2.933q0-2.507-.853-3.893-.853-1.387-3.04-1.387-1.76 0-3.04.96-1.28.907-1.973 2.613-.64 1.654-.64 3.894 0 3.466 1.813 5.44 1.813 1.92 4.747 1.92 1.653 0 3.2-.587 1.6-.64 3.04-1.867l1.973 3.2q-1.547 1.547-3.2 2.454-1.653.853-3.253 1.173-1.6.373-3.094.373m-8.053-11.36.693-3.68h16.214v3.68zm38.773 10.667V31.698q0-2.72-1.173-4.266-1.174-1.6-3.36-1.6-1.174 0-2.454.426-1.28.427-2.346 1.227t-1.76 1.973l-1.92-1.333q1.493-2.24 3.253-3.733 1.76-1.547 3.733-2.294 2.027-.8 4.214-.8 2.24 0 4.053.96t2.88 2.827q1.067 1.813 1.067 4.373v14.667zm-15.627 0v-21.92l5.067-1.12 1.12 4.587v18.453zm43.307 0-7.733-10.827h-.8v-1.28l8-10.346h7.893v.106l-12.213 11.84.8-4.106 12.32 14.506v.107zm-14.187 0V6.792l6.08-1.12v38.453ZM230.28 123.39q-2.534 0-4.734-1-2.133-1.068-3.466-3.068-1.267-2.066-1.267-5V96.19l2.8-7.267 4.933-1.066v25q0 2.533 1.134 3.666t2.8 1.134q1.133 0 2.4-.334 1.333-.4 2.6-1.2l2.133 3.267q-2 2.067-4.467 3.067-2.466.933-4.866.933m7.333-23.468-21.733-.133.466-4.4 21.734-.533zm7.067 23v-27.4l6.333-1.4 1.4 5.734v23.066zm6.4-17.6-1.734-1.666q2.134-4.2 5.067-6.734t6.267-2.533q1.6 0 2.933.4t2.333 1.2l-3 6.667q-.866-.667-2.066-1.067t-2.534-.4q-1.933 0-3.933 1t-3.333 3.133m39.266 18.134q-3 0-4.8-2.067-1.733-2.133-1.666-6.2l.266-11.333q.067-1.734-.266-2.734-.334-1.066-1-1.533-.667-.467-1.667-.467t-2.133.467q-1.134.4-2 1.533-.8 1.067-.934 3l-7.4-.866q.4-2 1.6-3.667 1.267-1.667 3.134-2.867 1.866-1.266 4.133-1.933 2.333-.667 4.867-.667 4.733 0 6.733 2.4 2.067 2.334 2 6.267l-.133 13.867q0 .733.333 1.133.4.333.933.333.534 0 1-.2.534-.2.934-.533l2.133 3.6q-1 1.067-2.6 1.8-1.533.667-3.467.667m-14.733 0q-3.4 0-5.467-1.867-2.066-1.933-2.066-4.933 0-1.734.733-3.267.8-1.6 2.8-2.867t5.667-2.066l10.866-2.4.334 3.4-9.4 2.733q-2.067.6-2.734 1.533-.6.867-.6 1.734 0 1.066.734 1.733.8.667 2.066.667 1.667 0 4.134-1.2 2.466-1.2 5.533-2.8l.133 2.6q-2.933 2.866-6.066 4.933t-6.667 2.067m44.6-.534V107.39q0-3.4-1.467-5.333-1.466-2-4.2-2-1.466 0-3.066.533t-2.934 1.533-2.2 2.467l-2.4-1.667q1.867-2.8 4.067-4.666 2.2-1.934 4.667-2.867 2.533-1 5.266-1 2.8 0 5.067 1.2t3.6 3.533q1.333 2.267 1.333 5.467v18.333zm-19.533 0v-27.4l6.333-1.4 1.4 5.734v23.066zm43.866.934q-2.066 0-4.066-.334-1.934-.333-3.6-.866-1.6-.534-2.734-1.2l2.067-6.134q1.8 1.534 4.2 2.467 2.467.867 4.533.867 2.134 0 2.934-.934.866-1 .866-2.066 0-1.4-1-2.2-.933-.8-2.533-1.334-1.533-.6-3.267-1.133-1.666-.6-3.266-1.533-1.534-.934-2.534-2.4-.933-1.534-.933-4 0-3.067 1.467-5.067 1.533-2 4-3 2.533-1.067 5.533-1.067 2.2 0 4.467.534 2.333.466 4 1.466l-2.067 5.734q-1.333-1.467-3.467-2.134-2.133-.666-3.333-.666-2.067 0-2.867.8t-.8 1.733q0 1.267 1 2.067 1 .733 2.534 1.333 1.6.533 3.333 1.133 1.8.6 3.333 1.6 1.6.934 2.6 2.467t1 4q0 1.933-.733 3.733-.667 1.734-2.133 3.134-1.4 1.4-3.534 2.2t-5 .8" />
      <path
         d="m371.88 101.122-3.2-10.6-5.667 8.734-5.867-5.067 9-6.267-10.066-2.666 3.066-7.2 8.534 6.533-.467-10.2 7.733.667-3.533 10.066 9.667-3.6 1.733 7.6-10.933-.266 6.6 8.2z"
         style="fill:#fc64ff" />
      <path
         d="M398.68 123.39q-3.667 0-6.2-1.8-2.467-1.868-3.534-5.134l1.867-2.2q1.133 1.866 2.867 2.866 1.733.934 3.733.934 2.333 0 4-1.134t2.533-3.2q.934-2.066.934-4.866 0-2.534-.8-4.6-.734-2.067-2.267-3.334-1.467-1.266-3.6-1.266-1.733 0-3.8 1-2 1-3.533 3.533l-2.667-1.533q2.267-4.2 5.133-6.2 2.934-2.067 6.934-2.067 3.933 0 6.8 1.8 2.933 1.733 4.466 4.8 1.6 3.067 1.6 7 0 4.4-2 7.867-1.933 3.466-5.2 5.533-3.266 2-7.266 2m-14.734 18.8V95.521l6.267-1.4 1.4 5.734v40.933zm48.8-18.4q-4.266 0-7.666-1.868-3.334-1.866-5.267-5.133-1.867-3.267-1.867-7.4 0-4.533 2.067-8 2.133-3.467 5.733-5.4 3.667-2 8.267-2 4.267 0 7.533 1.867 3.334 1.8 5.267 5.066 1.933 3.2 1.933 7.4 0 4.467-2.066 8-2.067 3.467-5.667 5.467t-8.267 2m1.134-5.334q2.333 0 3.8-1.334 1.466-1.333 2.133-3.466t.667-4.467q0-3.2-1.067-5.4-1-2.2-2.733-3.333-1.667-1.134-3.8-1.134-2.267 0-3.8 1.267-1.467 1.267-2.2 3.333-.667 2.067-.667 4.534 0 3.2 1 5.466 1.067 2.2 2.8 3.4 1.8 1.134 3.867 1.134m21.466 4.466v-27.4l6.334-1.4 1.4 5.734v23.066zm6.4-17.6-1.733-1.666q2.134-4.2 5.067-6.734t6.267-2.533q1.6 0 2.933.4t2.333 1.2l-3 6.667q-.866-.667-2.066-1.067t-2.534-.4q-1.933 0-3.933 1t-3.333 3.133m30.334 18.067q-2.533 0-4.733-1-2.134-1.067-3.467-3.067-1.267-2.066-1.267-5V96.19l2.8-7.267 4.933-1.066v25q0 2.533 1.134 3.666t2.8 1.134q1.133 0 2.4-.334 1.333-.4 2.6-1.2l2.133 3.267q-2 2.067-4.466 3.067-2.467.933-4.867.933m7.333-23.467-21.733-.133.466-4.4 21.734-.533z" />
   </g>
</svg>