<svg xmlns="http://www.w3.org/2000/svg" viewBox="0 0 300 300"><defs><linearGradient id="lg" x1="7" x2="293" y1="181" y2="181" gradientUnits="userSpaceOnUse"><stop id="stop5" offset="0" style="stop-color:#785eff"/><stop id="stop6" offset="1" style="stop-color:#abe6ff"/></linearGradient></defs><path d="M244.139 89.346c-24.393-.282-52.093 1.396-68.362 1.976-23.778.848-51.933 7.45-78.035 18.123-11.735 4.799-30.608 10.306-43.334 14.194-4.02 1.228 2.9 6.972-.424 9.314-23.586 16.629-40.678 37.02-40.023 58.846 1.357 45.246-13.96 63.793-3.356 81.639.212.356.752.217.926-.293 1.348-5.046 4.647-7.936 8.838-10.91 6.332-5.046 13.426-10.54 14.297-13.948 3.673 1.3 10.257.004 16.7-1.246 5.652-1.095 10.97-2.566 16.245.557 1.487.567 1.839-.02 1.522-.702-8.666-18.645-28.449-16.305-40.867-40.052-8.41-16.083 14.14-29.864 123.707-26.948q4.787.127 9.437.012c-5.51 5.422-11.808 11.748-19.172 17.324-27.188 20.59-56.4 23.006-51.383 31.66 4.42 7.622 38.6 1.88 64.706-12.947 18-10.224 30.306-27.832 31.945-38.591 65.756-11.44 104.615-57.376 105.531-75.245-1.213.153-9.124 1.18-18.95 3.301-10.687 2.307-23.631 5.938-32.43 10.983-11.087 6.355-17.079 14.35-22.968 20.187-2.944 2.918-5.9 5.328-9.517 6.52-3.618 1.19-7.802 1.072-12.887-.754a1.5 1.5 0 0 1-.904-1.918 1.5 1.5 0 0 1 1.92-.905c4.645 1.669 8.001 1.692 10.931.727s5.53-3.01 8.344-5.799c5.628-5.577 11.964-13.998 23.588-20.662 9.353-5.362 22.462-8.976 33.291-11.312 9.913-2.14 17.922-3.183 19.205-3.344-3.042-7.264-24.128-9.505-48.521-9.787m-37.534 36.125a4.415 6.07 66.077 0 1 4.7 2.625 4.415 6.07 66.077 0 1-4.397 6.332 4.415 6.07 66.077 0 1-6.972-2.149 4.415 6.07 66.077 0 1 4.396-6.33 4.415 6.07 66.077 0 1 2.273-.478" style="fill:url(#lg)"/></svg>